# xmcd
#
# Track frame offsets: 
#        150
#        10551
#        23414
#        34986
#        46519
#        59269
#        65014
#        83875
#        94966
#        108089
#        117852
#        125899
#
# Disc length: 1852 seconds
#
# Revision: 0
# Processed by: cddbd v1.5.1PL2 Copyright (c) Steve Scherf et al.
# Submitted via: ExactAudioCopy v0.95b4
#
DISCID=91073a0c
DTITLE=Betty Misheiker - Liedtjies Sal Jy Dit Glo
DYEAR=1900
DGENRE=Acid Punk
TTITLE0=Sal Jy Dit Glo
TTITLE1=Krokodil
TTITLE2=Die Eende
TTITLE3=Skoenmaker
TTITLE4=Handjies Klap
TTITLE5=Die Mier
TTITLE6=Die Lappop
TTITLE7=Die Olifant
TTITLE8=Opstaan
TTITLE9=Almal Dra 'n Jas
TTITLE10=Buite In Die Maanlig
TTITLE11=wiegelied
EXTD=
EXTT0=
EXTT1=
EXTT2=
EXTT3=
EXTT4=
EXTT5=
EXTT6=
EXTT7=
EXTT8=
EXTT9=
EXTT10=
EXTT11=
PLAYORDER=
